<?xml version="1.0" standalone="no"?>
<!DOCTYPE svg PUBLIC "-//W3C//DTD SVG 1.1//EN" 
  "http://www.w3.org/Graphics/SVG/1.1/DTD/svg11.dtd">
<svg viewBox="0 0 500 500" xmlns="http://www.w3.org/2000/svg" version="1.1">
  <desc>HKGolden Plastic</desc>

<defs>
  <radialGradient id="nosecolor" cx="50%" cy="50%" r="50%" fx="50%" fy="50%">
    <stop offset="40%" style="stop-color:red;stop-opacity:1" />
    <stop offset="90%" style="stop-color:pink;stop-opacity:1" />
  </radialGradient>
</defs>

  <circle cx="250" cy="250" r="230" fill="white" stroke="black" stroke-width="20" />
  <circle cx="250" cy="250" r="75" style="fill:url(#nosecolor)" />
  <path id="mouth" d="M75,250 A175 175 180 0 0 425 250 M395,250 A145 145 180 0 1 105 250" stroke="black" />
  <path id="eye1a" d="M200,80 A120 120 90 0 1 80 200 L80,170 A90 90 190 0 0 170 80 L200,80" stroke="black" />
  <path id="eye2a" d="M300,80 A120 120 90 0 0 420 200 L420,170 A90 90 190 0 1 330 80 L300,80" stroke="black" />
  <path id="eye1b" d="M115,165 V195 H135 V225 H165 V195 H195 V165 H115" stroke="black" />
  <path id="eye2b" d="M385,165 V195 H365 V225 H335 V195 H305 V165 H385" stroke="black" />
  <path id="moutha1" d="M60,250 H105 V280 H60 V250" stroke="black" />
  <path id="moutha2" d="M440,250 H395 V280 H440 V250" stroke="black" />
</svg>